<?xml version="1.0" encoding="UTF-8" standalone="no"?>
<svg
   xmlns:dc="http://purl.org/dc/elements/1.1/"
   xmlns:cc="http://creativecommons.org/ns#"
   xmlns:rdf="http://www.w3.org/1999/02/22-rdf-syntax-ns#"
   xmlns:svg="http://www.w3.org/2000/svg"
   xmlns="http://www.w3.org/2000/svg"
   xmlns:sodipodi="http://sodipodi.sourceforge.net/DTD/sodipodi-0.dtd"
   xmlns:inkscape="http://www.inkscape.org/namespaces/inkscape"
   version="1.1"
   id="svg2"
   xml:space="preserve"
   width="3003.7334"
   height="1010.9733"
   viewBox="0 0 3003.7334 1010.9733"
   sodipodi:docname="navigatorlogo_full_cmyk.eps"><metadata
     id="metadata8"><rdf:RDF><cc:Work
         rdf:about=""><dc:format>image/svg+xml</dc:format><dc:type
           rdf:resource="http://purl.org/dc/dcmitype/StillImage" /></cc:Work></rdf:RDF></metadata><defs
     id="defs6"><clipPath
       clipPathUnits="userSpaceOnUse"
       id="clipPath20"><path
         d="M 0,2 V 7582 H 22528 V 2 Z"
         id="path18" /></clipPath></defs><sodipodi:namedview
     pagecolor="#ffffff"
     bordercolor="#666666"
     borderopacity="1"
     objecttolerance="10"
     gridtolerance="10"
     guidetolerance="10"
     inkscape:pageopacity="0"
     inkscape:pageshadow="2"
     inkscape:window-width="640"
     inkscape:window-height="480"
     id="namedview4" /><g
     id="g10"
     inkscape:groupmode="layer"
     inkscape:label="ink_ext_XXXXXX"
     transform="matrix(1.3333333,0,0,-1.3333333,0,1010.9733)"><g
       id="g12"
       transform="scale(0.1)"><g
         id="g14"><g
           id="g16"
           clip-path="url(#clipPath20)"><path
             d="m 4987.88,3552.81 c -0.51,-1.91 -0.82,-3.73 -1.39,-5.66 l 0.27,0.08 c -48.59,-241.8 -167.95,-457.7 -335.97,-625.82 -45.57,-45.53 -94.77,-87.35 -146.92,-125.32 l -249,378.75 c -2.78,8.42 -5.41,16.84 -7.89,25.14 -22.23,74.47 -35.55,151.87 -47.76,228.52 -12.95,81.28 -12.03,149.16 45.71,216.6 13.61,15.91 29.16,27.4 45.91,35.82 17.21,7.34 35.43,13.01 54.48,16.89 h 582.2 c 46.27,-14.84 71.37,-54.84 66.61,-110.86 -1.92,-11.44 -4.03,-22.81 -6.25,-34.14 z M 3781.06,2561.13 c -190.68,0.06 -370.92,43.3 -531.78,120.57 l 270.12,411.78 c 3.09,9.35 9.04,18.32 17.54,26.73 l 0.6,0.92 h 0.36 c 39.59,38.24 130.93,65 237.32,65 106.39,0 197.73,-26.76 237.32,-65 h 0.38 l 0.62,-0.94 c 8.48,-8.41 14.39,-17.36 17.48,-26.69 l 272.87,-415.96 c -158.61,-74.63 -335.66,-116.37 -522.83,-116.41 z m -869.75,360.28 c -178.38,178.49 -301.97,410.84 -344.18,670.89 -2.99,57.91 26.64,97.86 79.16,108.83 h 534.87 c 36.17,-4.82 69.7,-15.97 99.55,-32.46 9.1,-6.54 17.69,-14.3 25.64,-23.57 57.74,-67.44 58.65,-135.32 45.71,-216.6 -12.21,-76.65 -25.53,-154.05 -47.76,-228.52 -0.62,-2.09 -1.29,-4.24 -1.93,-6.35 l -255.69,-388.9 c -47.85,35.66 -93.2,74.53 -135.37,116.68 z m -314.42,1202.56 c 57.66,205.8 167.31,389.71 314.42,536.91 222.93,222.78 529.77,360.2 869.75,360.26 339.96,-0.06 646.8,-137.48 869.73,-360.26 148.98,-149.06 259.61,-335.68 316.68,-544.61 3.18,-58.67 -31.06,-92.3 -90.75,-88.73 -220.6,103.85 -628.57,173.6 -1095.66,173.6 -467.25,0 -875.34,-69.79 -1095.88,-173.69 -61.06,-2.86 -94.97,33.73 -88.29,96.52 z M 4781,4781.1 c -253.51,253.44 -603.2,410.02 -989.94,410.04 -386.76,-0.02 -736.45,-156.6 -989.97,-410.04 -253.43,-253.52 -410.02,-603.21 -410.04,-989.96 0.02,-386.77 156.61,-736.45 410.04,-989.95 253.52,-253.44 603.21,-410.02 989.97,-410.06 386.74,0.04 736.43,156.62 989.94,410.06 253.46,253.5 410.02,603.18 410.06,989.95 -0.04,386.75 -156.6,736.44 -410.06,989.96 z m 908.56,-2922.57 -1218.4,431.43 50.99,172.27 c -216.81,-119.54 -465.99,-187.64 -731.09,-187.64 -430.92,0 -819.86,179.75 -1095.95,468.34 l -836.4,-850.04 432.71,1221.99 167.85,-49.7 c -117.78,215.62 -184.75,462.94 -184.75,725.96 0,432.4 180.98,822.53 471.29,1098.79 l -847.39,833.79 1220.84,-432.27 -49.08,-165.75 c 214.41,116.06 459.94,181.98 720.88,181.98 432.4,0 822.52,-180.97 1098.77,-471.29 l 832.11,845.66 -430.2,-1214.98 -168.9,50.01 c 117.79,-215.61 184.76,-462.95 184.76,-725.94 0,-430.93 -179.74,-819.85 -468.34,-1095.95 z M 5316.47,4459.75 5782.8,5776.74 4465.28,5313.72 3797.58,7582.26 3126.59,5316.18 1803.71,5784.58 2268.86,4461.18 0,3793.38 2266.69,3122.21 1797.86,1798.2 3126.39,2265.12 3793.09,0 4463.83,2265.23 5784.26,1797.68 5318.6,3122.66 7582.12,3788.89 Z m 8857.23,41.87 c 119,0 210,105 210,220.5 0,115.5 -91,217 -210,217 -115.5,0 -227.5,-84 -227.5,-206.5 0,-129.5 98,-231 227.5,-231 z m 8228.3,-164.5 c -175,0 -336,-108.5 -413,-266 v 266 h -10.5 c -49,-42 -133,-45.49 -213.5,-45.49 h -224 v -10.51 c 150.5,-87.5 129.5,-213.49 129.5,-374.49 v -836.5 c 0,-161 21,-290.5 -133,-378 v -10.5 h 584.5 v 10.5 c -154,87.5 -133,217 -133,378 v 490 c 0,360.49 112,500.49 378,500.49 59.5,0 122.5,-13.99 161,-56 v 322 z M 20431.5,2867.13 c -357,0 -549.5,346.5 -549.5,668.49 0,315 210,570.5 535.5,570.5 374.5,0 556.5,-335.99 556.5,-675.5 0,-315 -220.5,-563.49 -542.5,-563.49 z m 609,1263.49 c -168,147 -360.5,206.5 -584.5,206.5 -504,0 -927.5,-339.49 -927.5,-864.49 0,-497.01 406,-836.5 885.5,-836.5 493.5,0 913.5,364 913.5,868 0,238 -108.5,468.99 -287,626.49 z m -7794.3,150.5 c 185.5,-76.99 108.5,-241.5 38.5,-388.49 l -402.5,-864.51 -507.5,1130.5 c -28,59.5 -52.5,133.01 -56,175 h -10.5 c -77,-52.5 -178.5,-41.99 -287,-41.99 h -189 v -10.51 c 217,-115.5 227.5,-185.5 311.5,-374.49 l 423.5,-924 c 91,-206.5 182,-248.5 381.5,-364 l 794.5,1673 h -497 z m 1099,-1210.99 v 1277.49 h -10.5 c -59.5,-52.5 -147,-55.99 -227.5,-55.99 h -213.5 v -10.51 c 154,-87.5 133,-213.49 133,-374.49 v -836.5 c 0,-161 21,-290.5 -133,-378 v -10.5 h 584.5 v 10.5 c -154,87.5 -133,217 -133,378 z m 1259.9,307.99 c -227.5,0 -430.5,192.5 -430.5,420 0,203 164.5,308 357,308 248.5,0 437.5,-164.49 437.5,-388.49 0,-203 -154,-339.51 -364,-339.51 z m 941.5,777.01 80.5,181.99 h -1053.5 c -360.5,0 -752.5,-189 -752.5,-594.99 0,-262.5 210,-490 462,-539.01 -73.5,-35 -276.5,-83.99 -276.5,-185.49 0,-126 101.5,-252 255.5,-248.5 l 241.5,7 c 213.5,0 714,-17.5 714,-325.5 0,-294 -388.5,-360.49 -619.5,-360.49 -227.5,0 -577.5,52.5 -577.5,346.49 0,91 45.5,140 133,157.5 -66.5,31.5 -126,45.5 -199.5,45.5 -178.5,0 -336,-87.5 -336,-283.5 0,-297.5 455,-497 969.5,-497 546,0 983.5,220.5 983.5,616 0,346.5 -322,511 -927.5,511 -45.5,0 -210,-10.51 -210,66.5 0,59.5 94.5,91 143.5,94.5 318.5,28 745.5,150.5 745.5,545.99 0,178.51 -101.5,329 -248.5,423.51 119,-17.5 238,-45.51 360.5,-45.51 77,0 84,21 112,84.01 z m 2726.5,136.5 h -329 v 521.49 h -140 c 0,-325.5 -87.5,-570.5 -416.5,-626.49 v -126.01 h 238 v -727.99 c 0,-136.5 -49,-696.5 493.5,-696.5 38.5,0 77,7 112,17.5 l 185.5,248.5 c -45.5,-17.5 -91,-35 -140,-35 -374.5,0 -332.5,360.5 -332.5,493.49 v 700 h 210 c 91,0 196,7.01 252,-66.49 h 10.5 v 318.49 h -10.5 c -35,-20.99 -87.5,-20.99 -133,-20.99 z m -1207.5,-1011.5 v 525 c -3.5,423.49 -290.5,531.99 -668.5,531.99 l -227.5,-21 -234.5,-350 c 157.5,73.5 297.5,140 476,140 129.5,0 336,-55.99 336,-224 0,-381.5 -1046.5,-80.49 -1046.5,-731.5 0,-290.49 245,-514.49 598.5,-514.49 59.5,0 122.5,7 182,17.5 l 206.5,262.5 c -84,-24.5 -168,-49 -252,-49 -185.5,0 -381.5,70 -381.5,287 0,213.5 189,251.99 357,290.5 115.5,28 234.5,55.99 336,108.49 v -552.99 c 0,-280 231,-350 462,-364 l 154,231 c -290.5,31.5 -297.5,136.5 -297.5,413 z m -6369.9,0 v 525 c -3.5,423.49 -290.5,531.99 -668.5,531.99 l -227.5,-21 -234.5,-350 c 157.5,73.5 297.5,140 476,140 129.5,0 336,-55.99 336,-224 0,-381.5 -1046.5,-80.49 -1046.5,-731.5 0,-290.49 245,-514.49 598.5,-514.49 59.5,0 122.5,7 182,17.5 l 206.5,262.5 c -84,-24.5 -168,-49 -252,-49 -185.5,0 -381.5,70 -381.5,287 0,213.5 189,251.99 357,290.5 115.5,28 234.5,55.99 336,108.49 v -552.99 c 0,-280 231,-350 462,-364 l 154,231 c -290.5,31.5 -297.5,136.5 -297.5,413 z M 9588.76,4974.12 c 185.51,-105 182,-245 182,-441 V 3206.63 l -1280.99,1616.99 -49,70 c -24.5,28 -38.5,45.5 -52.5,87.5 v 3.5 h -510.99 v -10.5 c 181.99,-105 181.99,-245 181.99,-441 V 3136.63 c 0,-196.01 0,-336 -185.5,-444.5 v -10.5 h 619.5 v 10.5 c -185.5,108.5 -182,248.49 -182,444.5 v 1354.49 l 1200.5,-1522.49 c 153.99,-199.5 262.5,-315 511.03,-399 v 1963.49 c 0,196 0,336 182,441 v 10.5 h -616.04 v -10.5"
             style="fill:#2151a8;fill-opacity:1;fill-rule:nonzero;stroke:none"
             id="path22" /></g></g></g></g></svg>
